<svg version="1.1" id="Layer_1" xmlns="http://www.w3.org/2000/svg" xmlns:xlink="http://www.w3.org/1999/xlink" x="0px" y="0px"
	 width="100%" viewBox="0 0 559 532" enable-background="new 0 0 559 532" xml:space="preserve">
<path fill="#000000" opacity="1.000000" stroke="none" 
	d="
M317.000000,533.000000 
	C211.357422,533.000000 106.214836,533.000000 1.036125,533.000000 
	C1.036125,355.731354 1.036125,178.462723 1.036125,1.097039 
	C187.225922,1.097039 373.451935,1.097039 559.838989,1.097039 
	C559.838989,178.333221 559.838989,355.666595 559.838989,533.000000 
	C479.129364,533.000000 398.314667,533.000000 317.000000,533.000000 
M289.478394,117.021606 
	C289.478394,117.021606 289.057922,117.167343 288.286865,117.053146 
	C286.860107,117.695618 285.484039,118.713348 283.997589,118.914238 
	C278.218933,119.695190 274.528687,123.084709 271.171722,128.010696 
	C268.440369,130.311981 265.709015,132.613281 262.265533,135.060760 
	C253.492126,143.098511 244.710464,151.127274 235.949020,159.178055 
	C231.956741,162.846497 228.004440,166.558441 223.377121,170.440063 
	C222.341217,171.394302 221.307388,172.350815 220.269089,173.302414 
	C213.872467,179.165039 207.381271,184.928833 201.115921,190.928513 
	C197.843628,194.062103 194.968048,197.609970 191.275482,201.234818 
	C186.923752,204.452698 181.587341,206.498108 179.515472,212.293488 
	C177.322662,218.427185 172.959686,224.179886 177.048813,231.102615 
	C177.675995,232.164398 178.475922,233.152481 178.934555,234.280884 
	C181.833847,241.414017 192.463120,249.155670 199.290237,247.639038 
	C204.663254,246.445450 209.810669,243.559235 214.609726,240.677780 
	C218.311676,238.455048 221.431702,235.193283 224.608017,232.180099 
	C230.499451,226.591263 236.242966,220.846527 242.759918,215.001694 
	C251.672150,206.987091 260.676361,199.071594 269.459747,190.918198 
	C274.210297,186.508377 278.583832,181.692429 283.868042,177.004990 
	C290.396820,171.071793 296.354309,164.289627 303.596375,159.416458 
	C313.024841,153.072052 317.063690,139.434891 311.916046,130.283585 
	C308.437408,124.099380 304.145508,118.761810 295.399841,118.863586 
	C295.139648,118.527588 294.879425,118.191589 294.180054,117.316521 
	C292.754089,117.263519 291.328156,117.210518 289.478394,117.021606 
M107.334129,351.229645 
	C105.870300,352.104523 104.406471,352.979370 102.195824,353.936646 
	C91.314041,358.919861 84.310562,367.723450 82.374306,379.010529 
	C79.664070,394.809448 85.552414,410.583893 101.762009,418.268066 
	C109.310219,421.846313 117.035042,422.898987 125.728470,421.316528 
	C136.285187,419.394867 144.398270,414.508392 149.757751,405.874573 
	C154.330612,398.507935 155.838776,389.850464 155.678619,380.820160 
	C158.456482,377.903046 161.234329,374.985931 164.605972,371.980255 
	C165.231613,371.565948 165.857239,371.151672 166.694992,370.702545 
	C166.694992,370.702545 166.752182,370.495331 167.302994,370.156677 
	C171.640594,366.396729 175.983200,362.642578 180.314789,358.875732 
	C191.953827,348.754089 203.611038,338.653168 215.212357,328.488464 
	C219.454453,324.771698 223.577698,320.918182 227.720078,317.089081 
	C230.218094,314.779999 232.648605,312.397919 235.834930,309.948395 
	C239.086639,307.591736 242.598312,305.518982 245.540710,302.824554 
	C253.934219,295.138428 262.196991,287.302094 270.317078,279.327209 
	C276.772430,272.987274 276.644043,271.046631 269.898529,265.530762 
	C263.978821,260.690094 259.760895,254.993027 258.926910,247.089783 
	C258.508636,243.125977 254.487045,241.634399 251.313126,244.238632 
	C243.630493,250.542389 235.996948,256.913452 228.529755,263.469391 
	C224.256714,267.221008 220.347961,271.387543 215.725616,275.776215 
	C209.109726,281.830414 202.493835,287.884583 195.170135,294.022034 
	C188.567184,299.478363 181.876358,304.833984 175.424240,310.463196 
	C173.849548,311.837067 173.057739,314.108276 171.182129,316.024109 
	C166.280746,320.016296 161.186554,323.797150 156.523941,328.051056 
	C149.812103,334.174500 143.414093,340.641937 136.139694,347.021698 
	C131.966736,350.425995 127.008476,349.976746 122.085335,350.061554 
	C117.369278,350.142822 112.660408,350.641022 107.334129,351.229645 
M359.695770,306.738892 
	C367.361633,301.114868 374.845306,295.301941 380.776154,287.014404 
	C382.034454,286.351929 383.500946,285.918335 384.519226,284.992035 
	C396.058228,274.495026 407.901581,264.291473 418.858734,253.213409 
	C424.269104,247.743347 431.636078,243.951157 432.591553,234.008392 
	C433.287231,226.769409 431.818054,220.883026 428.129089,215.993500 
	C420.060333,205.298737 404.058594,204.629532 394.122650,213.636444 
	C381.305420,225.255295 368.780884,237.197113 355.795013,249.649017 
	C350.942261,253.669861 345.991058,257.578766 341.260925,261.739075 
	C334.910034,267.324829 328.698181,273.070557 322.497772,278.824280 
	C320.845398,280.357574 319.452637,282.170746 317.321350,284.166626 
	C315.755829,285.524078 314.160004,286.848328 312.629791,288.244507 
	C304.704407,295.475891 296.785706,302.714783 288.904449,309.994110 
	C288.396240,310.463531 288.221649,311.294159 287.165283,312.016357 
	C281.210205,317.435425 274.991364,322.597931 269.387634,328.358826 
	C265.276428,332.585358 261.432922,337.277893 258.442017,342.337341 
	C254.559006,348.905914 258.307831,362.505402 264.414307,366.993439 
	C274.799988,374.626526 288.393524,373.885956 297.959747,365.083557 
	C303.504364,359.981720 309.045807,354.875061 314.476105,349.653473 
	C314.827484,349.315613 314.211182,347.971375 314.822876,347.006012 
	C316.890076,345.944366 319.226288,345.203613 320.962982,343.747742 
	C323.740143,341.419647 326.022736,338.513153 328.684418,336.033722 
	C337.751709,327.587280 346.928650,319.258179 355.945709,310.759003 
	C356.747559,310.003204 356.693573,308.339417 357.689026,306.992096 
	C358.124420,306.931549 358.559814,306.870972 359.695770,306.738892 
M464.978210,169.168686 
	C463.653015,168.835144 462.327850,168.501602 460.206940,168.002548 
	C458.347931,167.338150 456.471954,166.097748 454.634155,166.152023 
	C452.220642,166.223282 449.855255,167.392212 447.437653,167.953293 
	C437.736450,170.204773 432.694489,175.667694 430.237000,186.288071 
	C429.831940,188.135925 428.621460,190.277908 429.169189,191.777878 
	C430.992126,196.770142 432.902527,201.885559 435.776764,206.305130 
	C441.057159,214.424484 452.387634,215.436188 463.135559,211.814972 
	C477.330261,207.032471 482.563141,190.852188 475.145966,178.083282 
	C473.145477,174.639313 470.935089,169.452881 465.016418,169.997406 
	C465.016418,169.997406 465.056915,169.961899 464.978210,169.168686 
M382.696259,190.806992 
	C384.120819,189.693787 385.873505,188.825516 386.916840,187.427750 
	C393.847290,178.142853 403.880585,172.314438 412.151306,164.531616 
	C420.593170,156.587723 429.186768,148.805099 438.139496,140.353806 
	C438.605042,140.191956 439.286621,140.174149 439.504547,139.847244 
	C445.078583,131.484482 452.927307,128.544662 462.666565,129.993942 
	C463.318451,130.090942 464.059296,130.202499 464.650635,129.996689 
	C469.112854,128.443665 474.387695,127.826759 477.812561,124.990227 
	C484.451141,119.492050 490.489960,113.296249 491.829193,103.724464 
	C493.797821,89.654251 486.615112,78.301903 474.890717,70.937599 
	C468.719666,67.061462 461.875885,68.064896 455.181549,68.033813 
	C439.601013,67.961456 427.071411,80.413612 426.901459,95.792900 
	C426.877350,97.975502 426.180664,100.480659 424.947968,102.244286 
	C422.989044,105.046989 420.316437,107.350891 417.213928,109.993240 
	C413.242340,113.112465 409.170258,116.113098 405.319641,119.375153 
	C396.821442,126.574486 388.434845,133.905533 379.302673,141.274963 
	C377.241394,142.964691 375.121735,144.588623 373.129639,146.356308 
	C366.863831,151.916245 360.654785,157.540070 354.407349,163.120758 
	C346.442505,170.235596 338.431183,177.298752 330.504730,184.456024 
	C327.855377,186.848312 325.405273,189.461273 322.250793,192.231171 
	C318.170990,195.636642 313.933472,198.873459 310.057556,202.497009 
	C306.481354,205.840363 307.210052,210.139893 311.707306,212.165970 
	C318.311615,215.141357 322.102478,220.553665 325.038910,226.723511 
	C327.971466,232.885208 331.181915,234.084869 336.848846,229.956345 
	C342.444122,225.880066 347.606018,221.208908 353.658386,216.665619 
	C363.114349,208.141815 372.570312,199.618011 382.696259,190.806992 
M319.822449,254.977631 
	C320.860382,252.706558 322.548096,250.513184 322.830444,248.151749 
	C324.619843,233.187424 320.588104,220.570770 305.778442,213.304718 
	C293.724945,207.390915 282.248810,209.648193 271.625946,218.245865 
	C266.184296,222.650070 264.705444,228.415710 263.378021,234.023651 
	C262.454590,237.924820 260.833099,243.207336 264.994873,247.902634 
	C266.500336,251.681778 267.026184,256.472351 269.691589,259.053894 
	C278.328003,267.418640 288.021240,272.233795 301.095673,268.344421 
	C309.184875,265.937988 314.959412,262.098755 319.822449,254.977631 
M171.800568,274.847656 
	C172.826599,271.231628 174.223038,267.665833 174.723099,263.978485 
	C174.974838,262.122223 173.775833,259.965515 172.925491,258.083588 
	C170.675797,253.104553 169.048203,248.169373 163.744644,244.678070 
	C157.148880,240.336105 150.389923,240.925491 143.495575,241.160767 
	C140.651749,241.257797 137.393021,242.323364 135.130997,244.023468 
	C126.311264,250.652298 121.115891,262.359619 126.208488,273.903900 
	C128.159790,278.327271 130.867828,282.451080 135.749863,284.934875 
	C141.310913,287.764099 146.968246,288.161530 152.939651,288.018616 
	C160.764923,287.831268 168.566086,282.426880 171.068024,275.035980 
	C171.068024,275.035980 171.085648,275.124420 171.800568,274.847656 
z"/>
<path fill="#4CA8EC" opacity="1.000000" stroke="none" 
	d="
M294.619232,117.855591 
	C294.879425,118.191589 295.139648,118.527588 295.723389,119.358665 
	C298.006683,121.561310 299.891785,123.365967 301.948212,124.947891 
	C303.835022,126.399338 307.118195,127.232750 307.668945,128.998749 
	C309.301483,134.233505 310.081909,139.771530 310.726288,145.246216 
	C310.859650,146.379150 308.967987,147.750473 307.672241,148.953033 
	C304.401489,149.357697 301.468079,149.821259 297.987396,150.371323 
	C297.882019,150.537659 297.604065,151.554352 296.977753,151.862091 
	C294.633240,153.014023 292.233154,154.324371 289.722992,154.699890 
	C288.983307,154.810547 287.954590,151.903046 286.801147,150.607697 
	C285.350769,148.978912 283.848114,147.197250 281.986298,146.180664 
	C279.151489,144.632782 275.986267,143.691711 272.966339,142.480606 
	C269.626434,141.141159 268.845978,139.014603 271.336487,135.903137 
	C271.958405,135.648819 272.328125,135.562576 272.523804,135.329941 
	C273.593842,134.057846 274.621155,132.749771 275.663147,131.454071 
	C275.011810,131.103973 273.831329,130.391953 273.786835,130.457001 
	C272.784058,131.922928 271.886780,133.463486 271.023621,135.019928 
	C270.883514,135.272598 270.998779,135.666901 270.623810,135.992737 
	C267.860870,136.322083 265.470093,136.654404 263.069275,136.641113 
	C263.032013,135.835205 263.004852,135.374893 262.977661,134.914581 
	C265.709015,132.613281 268.440369,130.311981 271.890076,127.939651 
	C279.945374,124.530937 287.282318,121.193268 294.619232,117.855591 
z"/>
<path fill="#1B58D0" opacity="1.000000" stroke="none" 
	d="
M164.012177,372.068787 
	C161.234329,374.985931 158.456482,377.903046 154.984589,381.063660 
	C153.860291,383.907806 153.568802,386.542023 152.950912,389.097260 
	C152.539536,390.798553 151.662384,392.387238 150.918777,393.628113 
	C150.561813,390.487427 150.279770,387.744934 150.063171,384.651001 
	C151.120285,382.259888 152.111938,380.220245 153.268677,377.841034 
	C152.608063,376.149323 152.318512,373.499847 150.850586,372.016541 
	C146.891083,368.015533 142.557373,364.347931 138.116104,360.875519 
	C135.709579,358.993927 132.843109,356.699463 130.070755,356.538025 
	C126.531189,356.331940 124.961243,355.035553 124.423035,352.080383 
	C129.775070,351.743195 135.190201,352.766998 138.397278,346.983032 
	C141.464783,345.217957 144.196152,343.536407 147.010590,342.207367 
	C151.034271,346.398987 154.574753,350.811920 159.027359,353.916748 
	C163.538086,357.062134 164.683762,361.812469 166.885284,366.393524 
	C166.737549,367.997498 166.744858,369.246399 166.752182,370.495331 
	C166.752182,370.495331 166.694992,370.702545 166.264709,370.599915 
	C165.227005,371.021118 164.619598,371.544952 164.012177,372.068787 
z"/>
<path fill="#64C7D7" opacity="1.000000" stroke="none" 
	d="
M417.945740,109.865791 
	C420.316437,107.350891 422.989044,105.046989 424.947968,102.244286 
	C426.180664,100.480659 426.877350,97.975502 426.901459,95.792900 
	C427.071411,80.413612 439.601013,67.961456 455.181549,68.033813 
	C461.875885,68.064896 468.719666,67.061462 474.890717,70.937599 
	C486.615112,78.301903 493.797821,89.654251 491.829193,103.724464 
	C490.489960,113.296249 484.451141,119.492050 477.812561,124.990227 
	C474.387695,127.826759 469.112854,128.443665 464.650635,129.996689 
	C464.059296,130.202499 463.318451,130.090942 462.666565,129.993942 
	C452.927307,128.544662 445.078583,131.484482 439.504547,139.847244 
	C439.286621,140.174149 438.605042,140.191956 437.670197,140.497009 
	C436.464569,139.771378 435.728210,138.902542 435.279236,137.857681 
	C436.904785,136.493271 438.278564,135.342270 439.574615,134.109558 
	C443.655151,130.228485 447.970978,126.850677 454.484070,126.971176 
	C460.452545,126.664253 465.795013,127.586426 471.254669,124.362747 
	C481.723053,118.181686 488.141357,110.507019 488.259613,97.636360 
	C488.321594,90.889626 484.836365,86.237740 481.647675,81.532501 
	C479.072571,77.732689 474.904022,73.559906 470.734619,72.587631 
	C461.262573,70.378845 450.932098,69.040176 442.581665,75.894432 
	C435.712860,81.532555 429.372314,88.082138 429.009216,98.402519 
	C429.397614,106.600883 422.734833,108.509155 417.992798,111.662964 
	C417.972900,110.824242 417.959320,110.345024 417.945740,109.865791 
z"/>
<path fill="#5A9ED3" opacity="1.000000" stroke="none" 
	d="
M356.130280,248.999817 
	C368.780884,237.197113 381.305420,225.255295 394.122650,213.636444 
	C404.058594,204.629532 420.060333,205.298737 428.129089,215.993500 
	C431.818054,220.883026 433.287231,226.769409 432.591553,234.008392 
	C431.636078,243.951157 424.269104,247.743347 418.858734,253.213409 
	C407.901581,264.291473 396.058228,274.495026 384.519226,284.992035 
	C383.500946,285.918335 382.034454,286.351929 380.399689,286.684937 
	C380.015533,285.593323 380.007843,284.831207 380.279785,283.875366 
	C385.710846,278.789246 390.862244,273.896851 396.302490,268.835541 
	C397.894287,267.664429 399.475403,266.876953 400.446625,265.618713 
	C403.079559,262.207733 409.337311,262.031342 409.342957,255.936401 
	C412.767029,253.357895 415.904266,250.915665 418.955292,248.370087 
	C421.839539,245.963715 424.974854,243.739670 427.383698,240.910858 
	C430.701813,237.014282 429.618622,223.555466 426.063171,219.579590 
	C424.736938,218.096527 423.243622,216.764374 421.870483,215.321533 
	C414.843292,207.937622 403.068817,208.697952 396.616699,217.027267 
	C395.170563,218.733704 394.062378,220.356583 392.598755,221.996384 
	C390.812195,223.319077 389.381104,224.624863 387.629211,226.060272 
	C381.869507,231.118729 376.430573,236.047562 370.654724,241.044342 
	C368.925385,242.186279 367.512634,243.235184 366.144714,244.339600 
	C363.418427,246.540771 360.716736,248.772446 357.867920,250.749985 
	C357.197418,250.005569 356.663849,249.502701 356.130280,248.999817 
z"/>
<path fill="#1C4BAE" opacity="1.000000" stroke="none" 
	d="
M150.993698,394.026306 
	C151.662384,392.387238 152.539536,390.798553 152.950912,389.097260 
	C153.568802,386.542023 153.860291,383.907806 154.651001,381.160980 
	C155.838776,389.850464 154.330612,398.507935 149.757751,405.874573 
	C144.398270,414.508392 136.285187,419.394867 125.728470,421.316528 
	C117.035042,422.898987 109.310219,421.846313 101.762009,418.268066 
	C85.552414,410.583893 79.664070,394.809448 82.374306,379.010529 
	C84.310562,367.723450 91.314041,358.919861 102.573883,354.283569 
	C102.938240,355.406067 102.924538,356.181702 102.613525,357.109436 
	C100.187317,359.805908 98.058426,362.350281 95.588348,364.980652 
	C93.257217,366.940338 90.604118,368.471893 89.422386,370.762543 
	C87.295586,374.885040 86.930443,379.508331 86.295952,384.215393 
	C84.885872,394.676300 89.560585,401.639282 95.483635,408.786377 
	C104.656242,419.854492 124.323509,422.092377 136.602417,413.409485 
	C139.685165,411.229584 143.053787,409.026520 145.189392,406.045013 
	C147.742004,402.481354 149.111649,398.070312 150.993698,394.026306 
z"/>
<path fill="#64C7D7" opacity="1.000000" stroke="none" 
	d="
M171.146698,275.080505 
	C168.566086,282.426880 160.764923,287.831268 152.939651,288.018616 
	C146.968246,288.161530 141.310913,287.764099 135.749863,284.934875 
	C130.867828,282.451080 128.159790,278.327271 126.208488,273.903900 
	C121.115891,262.359619 126.311264,250.652298 135.130997,244.023468 
	C137.393021,242.323364 140.651749,241.257797 143.495575,241.160767 
	C150.389923,240.925491 157.148880,240.336105 163.744644,244.678070 
	C169.048203,248.169373 170.675797,253.104553 172.925491,258.083588 
	C173.775833,259.965515 174.974838,262.122223 174.723099,263.978485 
	C174.223038,267.665833 172.826599,271.231628 171.426056,274.559143 
	C170.940109,271.629364 170.573395,268.969788 170.761932,266.350128 
	C171.530014,255.677902 161.771500,244.964478 151.245056,243.797394 
	C144.070816,243.001968 138.760132,246.227020 134.345795,250.425751 
	C130.699127,253.894302 128.663712,259.103241 126.156830,263.674011 
	C125.779106,264.362701 126.651970,265.805939 127.074158,266.848358 
	C127.678207,268.339783 128.759567,269.724823 129.009720,271.257721 
	C130.128204,278.111053 135.735641,281.634369 140.931427,282.538818 
	C149.968262,284.111816 160.004837,286.245941 167.330673,277.183441 
	C168.176071,276.137604 169.854477,275.765137 171.146698,275.080505 
z"/>
<path fill="#4983C8" opacity="1.000000" stroke="none" 
	d="
M216.275192,275.367279 
	C220.347961,271.387543 224.256714,267.221008 228.529755,263.469391 
	C235.996948,256.913452 243.630493,250.542389 251.313126,244.238632 
	C254.487045,241.634399 258.508636,243.125977 258.926910,247.089783 
	C259.760895,254.993027 263.978821,260.690094 269.898529,265.530762 
	C276.644043,271.046631 276.772430,272.987274 270.317078,279.327209 
	C262.196991,287.302094 253.934219,295.138428 245.540710,302.824554 
	C242.598312,305.518982 239.086639,307.591736 235.192871,309.975952 
	C234.364349,309.992737 234.177856,309.981995 234.060120,309.632202 
	C235.765457,306.879303 237.402069,304.465485 239.391800,302.018127 
	C241.882111,300.244507 244.194382,298.677429 246.120178,296.728455 
	C250.191956,292.607666 254.061859,288.287384 258.386047,284.039429 
	C261.737762,281.846405 264.975433,279.933350 267.629395,277.407043 
	C270.570251,274.607635 270.358978,271.655579 267.534088,268.285126 
	C263.327423,263.266083 259.496002,257.874451 256.019135,252.319534 
	C253.045181,247.568039 251.216873,247.302643 247.183853,251.538055 
	C243.550461,255.353806 239.437210,258.708466 235.719772,262.449493 
	C232.011902,266.180878 228.532867,270.139648 224.666382,274.216919 
	C221.919693,274.957062 219.460159,275.479034 216.822052,275.839386 
	C216.643494,275.677765 216.275192,275.367279 216.275192,275.367279 
z"/>
<path fill="#3F74C4" opacity="1.000000" stroke="none" 
	d="
M314.045044,347.095276 
	C314.211182,347.971375 314.827484,349.315613 314.476105,349.653473 
	C309.045807,354.875061 303.504364,359.981720 297.959747,365.083557 
	C288.393524,373.885956 274.799988,374.626526 264.414307,366.993439 
	C258.307831,362.505402 254.559006,348.905914 258.442017,342.337341 
	C261.432922,337.277893 265.276428,332.585358 269.387634,328.358826 
	C274.991364,322.597931 281.210205,317.435425 287.746155,312.193237 
	C288.551605,312.918121 288.776184,313.466125 288.930969,314.349091 
	C286.773560,316.949951 284.681122,319.211426 282.599579,321.482880 
	C280.027252,324.289886 277.463989,327.105164 274.560547,329.994629 
	C264.675720,336.971100 257.101135,345.296417 264.159058,360.163605 
	C267.715668,367.655457 284.517700,372.103851 290.662933,366.743011 
	C294.751587,363.176208 298.283203,358.970917 302.388306,354.949646 
	C306.471558,351.883057 310.230713,348.918243 314.004578,346.238861 
	C314.027863,346.714630 314.036469,346.904968 314.045044,347.095276 
z"/>
<path fill="#4983C8" opacity="1.000000" stroke="none" 
	d="
M242.048065,215.166687 
	C236.242966,220.846527 230.499451,226.591263 224.608017,232.180099 
	C221.431702,235.193283 218.311676,238.455048 214.609726,240.677780 
	C209.810669,243.559235 204.663254,246.445450 199.290237,247.639038 
	C192.463120,249.155670 181.833847,241.414017 178.934555,234.280884 
	C178.475922,233.152481 177.675995,232.164398 177.048813,231.102615 
	C172.959686,224.179886 177.322662,218.427185 179.515472,212.293488 
	C181.587341,206.498108 186.923752,204.452698 191.889175,201.156021 
	C193.004150,201.384979 193.505432,201.692734 193.935913,202.336456 
	C190.560181,206.124512 187.380981,209.709778 183.910706,212.986816 
	C181.110657,215.630936 180.165527,218.288605 182.149734,221.814468 
	C182.846069,223.051819 183.644287,224.653625 183.423111,225.918961 
	C181.608475,236.301178 182.472946,238.061264 192.145737,242.369995 
	C197.285889,244.371674 202.244843,245.535065 206.984222,241.999527 
	C206.996521,241.996613 207.006821,241.973526 207.365265,241.972534 
	C208.797241,241.315887 209.870773,240.660217 211.180939,239.769562 
	C218.638443,232.370956 225.859360,225.207321 233.433624,218.018661 
	C236.521729,216.344971 239.256454,214.696304 241.996414,213.400879 
	C242.017136,214.224976 242.032608,214.695847 242.048065,215.166687 
z"/>
<path fill="#4983C8" opacity="1.000000" stroke="none" 
	d="
M264.973694,247.063324 
	C260.833099,243.207336 262.454590,237.924820 263.378021,234.023651 
	C264.705444,228.415710 266.184296,222.650070 271.625946,218.245865 
	C282.248810,209.648193 293.724945,207.390915 305.778442,213.304718 
	C320.588104,220.570770 324.619843,233.187424 322.830444,248.151749 
	C322.548096,250.513184 320.860382,252.706558 319.083008,255.009033 
	C317.869415,255.014328 317.395325,254.988205 316.947327,254.574112 
	C317.062897,253.527405 316.973083,252.771606 317.269073,252.224655 
	C320.857178,245.594986 322.334869,239.058380 316.771210,232.656143 
	C316.503143,232.347717 316.707977,231.672791 316.533356,231.231552 
	C315.373260,228.300186 314.813812,224.828659 312.859741,222.570587 
	C306.966156,215.760040 299.308838,212.606232 290.186920,214.086014 
	C281.410583,215.509750 273.733459,218.871750 268.935181,227.378693 
	C266.448914,233.831131 263.448883,239.798798 265.176208,246.771851 
	C265.099426,246.862213 264.973694,247.063324 264.973694,247.063324 
z"/>
<path fill="#74CBDC" opacity="1.000000" stroke="none" 
	d="
M465.041779,169.950226 
	C470.935089,169.452881 473.145477,174.639313 475.145966,178.083282 
	C482.563141,190.852188 477.330261,207.032471 463.135559,211.814972 
	C452.387634,215.436188 441.057159,214.424484 435.776764,206.305130 
	C432.902527,201.885559 430.992126,196.770142 429.169189,191.777878 
	C428.621460,190.277908 429.831940,188.135925 430.624084,186.443344 
	C431.647217,187.398895 432.283325,188.199158 432.936768,189.426544 
	C434.218079,194.549835 435.229889,199.338684 436.901489,203.884979 
	C437.395874,205.229630 439.680145,206.033188 441.274139,206.822281 
	C442.746368,207.551117 444.440979,207.817795 445.954346,208.478760 
	C454.626740,212.266388 462.181458,210.861969 468.671936,203.716461 
	C470.834351,201.335770 473.408905,198.379990 473.726166,195.462173 
	C474.484406,188.489136 475.512177,180.932800 467.960510,176.193085 
	C467.391846,175.836182 467.292633,174.731323 466.889221,173.662689 
	C466.216125,172.217545 465.628937,171.083893 465.041779,169.950226 
z"/>
<path fill="#3769BA" opacity="1.000000" stroke="none" 
	d="
M233.991394,309.971252 
	C234.177856,309.981995 234.364349,309.992737 234.830139,310.026062 
	C232.648605,312.397919 230.218094,314.779999 227.720078,317.089081 
	C223.577698,320.918182 219.454453,324.771698 215.212357,328.488464 
	C203.611038,338.653168 191.953827,348.754089 180.314789,358.875732 
	C175.983200,362.642578 171.640594,366.396729 167.027588,370.325989 
	C166.744858,369.246399 166.737549,367.997498 167.169067,366.218231 
	C171.858887,362.045135 176.223557,358.525635 180.334961,354.731598 
	C186.989990,348.590302 193.478607,342.268707 200.373123,335.951355 
	C206.503616,330.604370 212.298508,325.329285 218.428360,319.978790 
	C223.839340,316.592651 228.915359,313.281952 233.991394,309.971252 
z"/>
<path fill="#4983C8" opacity="1.000000" stroke="none" 
	d="
M352.958038,216.798706 
	C347.606018,221.208908 342.444122,225.880066 336.848846,229.956345 
	C331.181915,234.084869 327.971466,232.885208 325.038910,226.723511 
	C322.102478,220.553665 318.311615,215.141357 311.707306,212.165970 
	C307.210052,210.139893 306.481354,205.840363 310.057556,202.497009 
	C313.933472,198.873459 318.170990,195.636642 322.862915,192.186310 
	C323.965302,192.765594 324.455536,193.389740 324.701538,194.227982 
	C321.338623,197.153717 318.207245,199.850906 315.104828,202.581024 
	C311.920563,205.383133 312.382599,209.505142 316.030579,210.912369 
	C321.693329,213.096802 325.682495,216.620926 327.261932,222.866714 
	C327.713928,224.654297 330.669952,227.393631 331.849518,227.107407 
	C335.053925,226.329849 338.123505,224.447495 340.872864,222.480743 
	C344.428528,219.937195 347.622070,216.887421 351.167114,214.271637 
	C351.894501,215.258011 352.426270,216.028366 352.958038,216.798706 
z"/>
<path fill="#5A9ED3" opacity="1.000000" stroke="none" 
	d="
M324.945801,194.013855 
	C324.455536,193.389740 323.965302,192.765594 323.169556,192.057404 
	C325.405273,189.461273 327.855377,186.848312 330.504730,184.456024 
	C338.431183,177.298752 346.442505,170.235596 354.407349,163.120758 
	C360.654785,157.540070 366.863831,151.916245 373.129639,146.356308 
	C375.121735,144.588623 377.241394,142.964691 379.655396,141.615082 
	C380.010529,142.985168 380.012970,144.015121 379.916077,145.360901 
	C375.185638,150.094269 370.554596,154.511810 365.596832,159.015900 
	C360.501740,163.713623 355.733337,168.324814 350.619019,173.005951 
	C346.740417,176.018555 343.132507,178.876373 339.695709,181.926987 
	C336.034882,185.176483 332.535919,188.608337 328.686920,192.128540 
	C327.253632,192.868958 326.099701,193.441406 324.945801,194.013855 
z"/>
<path fill="#61B3D5" opacity="1.000000" stroke="none" 
	d="
M434.991882,138.033722 
	C435.728210,138.902542 436.464569,139.771378 437.457397,140.796036 
	C429.186768,148.805099 420.593170,156.587723 412.151306,164.531616 
	C403.880585,172.314438 393.847290,178.142853 386.916840,187.427750 
	C385.873505,188.825516 384.120819,189.693787 382.222839,190.688568 
	C381.171143,190.048264 380.592865,189.526352 380.063629,188.693268 
	C380.418762,187.603668 380.724854,186.825287 381.315613,185.870728 
	C385.425262,182.877655 389.500549,180.337067 393.003174,177.164276 
	C396.348145,174.134232 399.096893,170.445953 402.423492,166.938385 
	C407.507263,162.578659 412.275269,158.327576 417.385925,153.997559 
	C422.820770,148.620972 427.912964,143.323288 433.336304,138.025513 
	C434.108978,138.028183 434.550415,138.030945 434.991882,138.033722 
z"/>
<path fill="#5A9ED3" opacity="1.000000" stroke="none" 
	d="
M308.009613,149.011932 
	C308.967987,147.750473 310.859650,146.379150 310.726288,145.246216 
	C310.081909,139.771530 309.301483,134.233505 307.668945,128.998749 
	C307.118195,127.232750 303.835022,126.399338 301.948212,124.947891 
	C299.891785,123.365967 298.006683,121.561310 296.011963,119.494003 
	C304.145508,118.761810 308.437408,124.099380 311.916046,130.283585 
	C317.063690,139.434891 313.024841,153.072052 303.596375,159.416458 
	C296.354309,164.289627 290.396820,171.071793 283.285583,176.889847 
	C282.466553,176.531143 282.230011,176.287582 282.221436,175.767365 
	C283.979462,170.557022 286.842957,166.990128 292.009857,165.384201 
	C293.288177,164.986908 294.205109,163.449158 295.306335,162.455826 
	C298.357269,159.703842 301.532104,157.076324 304.426392,154.169083 
	C305.880432,152.708511 306.831238,150.746933 308.009613,149.011932 
z"/>
<path fill="#3F74C4" opacity="1.000000" stroke="none" 
	d="
M316.921204,254.962067 
	C317.395325,254.988205 317.869415,255.014328 318.697266,255.071411 
	C314.959412,262.098755 309.184875,265.937988 301.095673,268.344421 
	C288.021240,272.233795 278.328003,267.418640 269.691589,259.053894 
	C267.026184,256.472351 266.500336,251.681778 264.984283,247.482971 
	C264.973694,247.063324 265.099426,246.862213 265.479065,246.941437 
	C266.783539,247.927872 268.069214,248.669418 268.574280,249.769394 
	C271.695160,256.566284 276.268250,261.372314 283.551697,264.199310 
	C294.987457,268.637939 306.910889,265.762054 313.403320,256.008789 
	C314.795471,255.615662 315.858337,255.288864 316.921204,254.962067 
z"/>
<path fill="#4983C8" opacity="1.000000" stroke="none" 
	d="
M314.433960,347.050659 
	C314.036469,346.904968 314.027863,346.714630 314.024658,345.883057 
	C316.367706,342.828827 318.705353,340.415802 321.319824,337.821777 
	C323.349945,336.130035 325.087891,334.601074 326.859253,333.111908 
	C333.115875,327.851898 341.059052,324.109680 343.437012,315.023804 
	C348.206604,312.214752 352.615417,309.426971 357.044830,306.753235 
	C357.065430,306.867279 357.037079,307.097351 357.037109,307.097351 
	C356.693573,308.339417 356.747559,310.003204 355.945709,310.759003 
	C346.928650,319.258179 337.751709,327.587280 328.684418,336.033722 
	C326.022736,338.513153 323.740143,341.419647 320.962982,343.747742 
	C319.226288,345.203613 316.890076,345.944366 314.433960,347.050659 
z"/>
<path fill="#5491CD" opacity="1.000000" stroke="none" 
	d="
M281.993439,176.044022 
	C282.230011,176.287582 282.466553,176.531143 282.915283,176.917206 
	C278.583832,181.692429 274.210297,186.508377 269.459747,190.918198 
	C260.676361,199.071594 251.672150,206.987091 242.403992,215.084198 
	C242.032608,214.695847 242.017136,214.224976 242.092255,213.074799 
	C247.469711,206.281647 252.756561,200.167816 258.421692,194.040680 
	C263.392029,194.408936 263.508453,188.908142 266.305176,187.930695 
	C271.945465,185.959442 274.441986,181.627075 277.378357,176.973877 
	C279.155334,176.620041 280.574371,176.332031 281.993439,176.044022 
z"/>
<path fill="#5491CD" opacity="1.000000" stroke="none" 
	d="
M355.962646,249.324417 
	C356.663849,249.502701 357.197418,250.005569 357.800690,251.105560 
	C356.707001,253.639969 356.001404,256.558075 354.303619,257.350586 
	C345.329773,261.539490 339.555298,269.195496 332.653748,276.127930 
	C330.671478,277.569580 329.098419,279.044495 327.286011,280.113647 
	C324.273743,281.890686 321.107819,283.407227 317.990112,284.738953 
	C317.962677,284.248108 317.951691,284.051758 317.940704,283.855408 
	C319.452637,282.170746 320.845398,280.357574 322.497772,278.824280 
	C328.698181,273.070557 334.910034,267.324829 341.260925,261.739075 
	C345.991058,257.578766 350.942261,253.669861 355.962646,249.324417 
z"/>
<path fill="#5A9ED3" opacity="1.000000" stroke="none" 
	d="
M262.621582,134.987671 
	C263.004852,135.374893 263.032013,135.835205 262.983765,136.988617 
	C261.260712,139.912659 259.618958,142.147949 257.963837,144.373276 
	C256.316437,146.588272 254.655594,148.793274 253.000320,151.001312 
	C253.000000,151.000000 253.002487,151.000610 252.675980,151.063995 
	C251.552399,152.077850 250.755341,153.028336 249.569290,153.977814 
	C247.366791,154.884293 245.271637,155.467911 243.789597,156.756622 
	C238.088821,161.713684 232.584381,166.896530 226.687714,171.980011 
	C225.590469,171.393448 224.812241,170.822052 224.033997,170.250656 
	C228.004440,166.558441 231.956741,162.846497 235.949020,159.178055 
	C244.710464,151.127274 253.492126,143.098511 262.621582,134.987671 
z"/>
<path fill="#61B3D5" opacity="1.000000" stroke="none" 
	d="
M380.015442,145.045074 
	C380.012970,144.015121 380.010529,142.985168 380.005402,141.569031 
	C388.434845,133.905533 396.821442,126.574486 405.319641,119.375153 
	C409.170258,116.113098 413.242340,113.112465 417.579834,109.929520 
	C417.959320,110.345024 417.972900,110.824242 417.715393,111.831146 
	C416.626892,113.576675 415.809418,114.794525 414.702393,116.178726 
	C409.886505,121.455879 405.208832,126.353165 398.799713,129.226059 
	C397.950195,129.606857 397.561310,131.015244 396.623047,132.025314 
	C391.515228,136.395950 386.743469,140.689011 381.645447,144.986801 
	C380.884583,145.009384 380.450012,145.027237 380.015442,145.045074 
z"/>
<path fill="#64C7D7" opacity="1.000000" stroke="none" 
	d="
M465.029114,169.973816 
	C465.628937,171.083893 466.216125,172.217545 466.527832,173.595566 
	C459.370483,170.401489 452.937195,170.780487 445.360901,173.198441 
	C436.715179,175.957718 434.945831,182.099686 432.919434,188.999420 
	C432.283325,188.199158 431.647217,187.398895 430.972839,186.264771 
	C432.694489,175.667694 437.736450,170.204773 447.437653,167.953293 
	C449.855255,167.392212 452.220642,166.223282 454.634155,166.152023 
	C456.471954,166.097748 458.347931,167.338150 460.737518,168.400970 
	C462.531036,169.186905 463.793976,169.574402 465.056915,169.961914 
	C465.056915,169.961899 465.016418,169.997406 465.029114,169.973816 
z"/>
<path fill="#5491CD" opacity="1.000000" stroke="none" 
	d="
M223.705566,170.345367 
	C224.812241,170.822052 225.590469,171.393448 226.680511,172.226807 
	C226.992325,172.488754 226.980835,172.982269 226.675262,173.128250 
	C222.980347,176.352798 219.558273,179.396271 216.209457,182.518326 
	C211.434891,186.969666 206.714066,191.478638 201.635620,196.035141 
	C198.869537,198.071686 196.438126,200.036087 194.006714,202.000488 
	C193.505432,201.692734 193.004150,201.384979 192.208069,201.023972 
	C194.968048,197.609970 197.843628,194.062103 201.115921,190.928513 
	C207.381271,184.928833 213.872467,179.165039 220.269089,173.302414 
	C221.307388,172.350815 222.341217,171.394302 223.705566,170.345367 
z"/>
<path fill="#3769BA" opacity="1.000000" stroke="none" 
	d="
M146.927536,341.854828 
	C144.196152,343.536407 141.464783,345.217957 138.102539,346.953156 
	C137.275162,346.992004 137.078659,346.977264 136.882156,346.962555 
	C143.414093,340.641937 149.812103,334.174500 156.523941,328.051056 
	C161.186554,323.797150 166.280746,320.016296 171.900635,316.002258 
	C173.094620,315.988800 173.570129,315.997223 173.972595,316.329895 
	C172.930893,318.087708 171.962204,319.521271 170.646713,321.019470 
	C169.418991,321.529419 168.413696,321.826111 167.676727,322.443237 
	C161.351028,327.740112 155.036087,333.051758 148.823532,338.479828 
	C147.907715,339.279999 147.545746,340.714050 146.927536,341.854828 
z"/>
<path fill="#4983C8" opacity="1.000000" stroke="none" 
	d="
M317.631042,284.011017 
	C317.951691,284.051758 317.962677,284.248108 317.985535,285.138611 
	C318.901733,290.142395 315.656067,291.875641 312.623138,294.025574 
	C307.711273,298.104767 303.019073,301.985138 298.603943,306.158539 
	C296.143127,308.484619 294.143188,311.298248 291.568665,313.907043 
	C290.468109,313.952667 289.734436,313.983398 289.000763,314.014160 
	C288.776184,313.466125 288.551605,312.918121 288.109436,312.163422 
	C288.221649,311.294159 288.396240,310.463531 288.904449,309.994110 
	C296.785706,302.714783 304.704407,295.475891 312.629791,288.244507 
	C314.160004,286.848328 315.755829,285.524078 317.631042,284.011017 
z"/>
<path fill="#5A9ED3" opacity="1.000000" stroke="none" 
	d="
M380.014587,189.004456 
	C380.592865,189.526352 381.171143,190.048264 381.887848,190.832184 
	C372.570312,199.618011 363.114349,208.141815 353.308228,216.732178 
	C352.426270,216.028366 351.894501,215.258011 351.292206,214.009674 
	C351.479614,213.015793 351.737579,212.499893 352.243683,211.760986 
	C354.367859,209.994614 356.387299,208.592926 358.085785,206.874084 
	C360.529633,204.401001 362.739929,201.697159 365.409729,199.056015 
	C367.251160,198.070312 368.775055,197.179703 370.205750,196.158508 
	C373.499420,193.807556 376.747833,191.393127 380.014587,189.004456 
z"/>
<path fill="#3F74C4" opacity="1.000000" stroke="none" 
	d="
M174.045624,316.005615 
	C173.570129,315.997223 173.094620,315.988800 172.262558,315.973633 
	C173.057739,314.108276 173.849548,311.837067 175.424240,310.463196 
	C181.876358,304.833984 188.567184,299.478363 195.880173,293.997681 
	C197.065842,293.979858 197.541458,293.986389 197.957764,294.333069 
	C197.603577,295.781525 197.308716,296.889893 196.807404,298.200256 
	C196.389099,298.932037 196.177246,299.461823 195.726791,299.987793 
	C195.488190,299.984009 195.011002,299.990906 194.700867,300.132629 
	C192.921524,301.345276 191.421326,302.376465 189.988602,303.494141 
	C184.662262,307.649231 179.358109,311.832764 174.045624,316.005615 
z"/>
<path fill="#5491CD" opacity="1.000000" stroke="none" 
	d="
M380.000183,284.069061 
	C380.007843,284.831207 380.015533,285.593323 380.032349,286.736267 
	C374.845306,295.301941 367.361633,301.114868 359.344421,306.478271 
	C358.981873,305.822571 358.970673,305.427460 358.978638,304.780640 
	C359.005829,304.361115 359.013885,304.193329 359.315796,303.939392 
	C360.088867,303.242889 360.568085,302.632507 361.243530,301.822815 
	C361.644806,301.111938 361.849884,300.600403 362.387695,300.005280 
	C364.929840,297.776794 367.051147,295.530853 369.368958,293.510376 
	C372.942200,290.395508 374.047516,284.491547 380.000183,284.069061 
z"/>
<path fill="#4983C8" opacity="1.000000" stroke="none" 
	d="
M198.017090,293.992920 
	C197.541458,293.986389 197.065842,293.979858 196.234070,293.956055 
	C202.493835,287.884583 209.109726,281.830414 216.000397,275.571747 
	C216.275192,275.367279 216.643494,275.677765 216.757095,276.195984 
	C216.566422,278.121643 216.262161,279.529053 215.620529,281.013367 
	C213.927841,282.266785 212.627563,283.514893 211.206894,284.606293 
	C206.925797,287.895142 204.581497,293.916534 198.017090,293.992920 
z"/>
<path fill="#1C4BAE" opacity="1.000000" stroke="none" 
	d="
M136.510925,346.992126 
	C137.078659,346.977264 137.275162,346.992004 137.766418,347.036652 
	C135.190201,352.766998 129.775070,351.743195 123.999512,352.060791 
	C120.106689,352.354156 117.081070,352.645477 113.762779,352.733826 
	C111.629539,352.005890 109.788963,351.480927 107.948380,350.955994 
	C112.660408,350.641022 117.369278,350.142822 122.085335,350.061554 
	C127.008476,349.976746 131.966736,350.425995 136.510925,346.992126 
z"/>
<path fill="#5A9ED3" opacity="1.000000" stroke="none" 
	d="
M294.399658,117.586060 
	C287.282318,121.193268 279.945374,124.530937 272.244019,127.913971 
	C274.528687,123.084709 278.218933,119.695190 283.997589,118.914238 
	C285.484039,118.713348 286.860107,117.695618 288.768677,117.199814 
	C289.250488,117.346489 289.604004,117.399658 289.604004,117.399658 
	C289.604004,117.399658 289.902191,117.157509 289.902191,117.157516 
	C291.328156,117.210518 292.754089,117.263519 294.399658,117.586060 
z"/>
<path fill="#1B58D0" opacity="1.000000" stroke="none" 
	d="
M107.641258,351.092804 
	C109.788963,351.480927 111.629539,352.005890 113.563545,353.032166 
	C110.781654,356.892853 106.982132,357.351562 102.910843,356.957306 
	C102.924538,356.181702 102.938240,355.406067 102.947296,354.242340 
	C104.406471,352.979370 105.870300,352.104523 107.641258,351.092804 
z"/>
<path fill="#74CBDC" opacity="1.000000" stroke="none" 
	d="
M465.017578,169.565308 
	C463.793976,169.574402 462.531036,169.186905 461.135376,168.483734 
	C462.327850,168.501602 463.653015,168.835144 465.017578,169.565308 
z"/>
<path fill="#4499E8" opacity="1.000000" stroke="none" 
	d="
M358.959503,305.032379 
	C358.970673,305.427460 358.981873,305.822571 358.994141,306.514038 
	C358.559814,306.870972 358.124420,306.931549 357.363037,307.044739 
	C357.037079,307.097351 357.065430,306.867279 357.139038,306.506531 
	C357.794922,305.774689 358.377228,305.403534 358.959503,305.032379 
z"/>
<path fill="#3769BA" opacity="1.000000" stroke="none" 
	d="
M164.309082,372.024536 
	C164.619598,371.544952 165.227005,371.021118 166.158646,370.617340 
	C165.857239,371.151672 165.231613,371.565948 164.309082,372.024536 
z"/>
<path fill="#4CA8EC" opacity="1.000000" stroke="none" 
	d="
M289.690308,117.089554 
	C289.902191,117.157509 289.604004,117.399658 289.604004,117.399658 
	C289.604004,117.399658 289.250488,117.346489 289.154205,117.256912 
	C289.057922,117.167343 289.478394,117.021606 289.690308,117.089554 
z"/>
<path fill="#49A3EB" opacity="1.000000" stroke="none" 
	d="
M253.000641,151.002655 
	C254.655594,148.793274 256.316437,146.588272 257.963837,144.373276 
	C259.618958,142.147949 261.260712,139.912659 262.993835,137.334229 
	C265.470093,136.654404 267.860870,136.322083 270.625793,135.994873 
	C271.000000,136.000000 271.003967,136.003632 271.003967,136.003632 
	C268.845978,139.014603 269.626434,141.141159 272.966339,142.480606 
	C275.986267,143.691711 279.151489,144.632782 281.986298,146.180664 
	C283.848114,147.197250 285.350769,148.978912 286.801147,150.607697 
	C287.954590,151.903046 288.983307,154.810547 289.722992,154.699890 
	C292.233154,154.324371 294.633240,153.014023 296.977753,151.862091 
	C297.604065,151.554352 297.882019,150.537659 297.987396,150.371323 
	C301.468079,149.821259 304.401489,149.357697 307.672241,148.953018 
	C306.831238,150.746933 305.880432,152.708511 304.426392,154.169083 
	C301.532104,157.076324 298.357269,159.703842 295.306335,162.455826 
	C294.205109,163.449158 293.288177,164.986908 292.009857,165.384201 
	C286.842957,166.990128 283.979462,170.557022 282.221436,175.767365 
	C280.574371,176.332031 279.155334,176.620041 277.148376,176.725433 
	C274.795990,175.307602 272.928650,174.192749 271.298645,172.800110 
	C269.925049,171.626511 267.833496,170.156906 267.796265,168.771652 
	C267.690643,164.841431 265.249695,164.303726 262.885345,165.420609 
	C258.109589,167.676636 256.136017,166.145859 256.011414,161.370422 
	C253.748642,161.562622 251.872726,161.721970 250.034454,161.878128 
	C250.034454,159.683914 250.034454,158.112427 250.028290,156.542053 
	C254.710739,154.891068 255.074066,154.215210 253.000641,151.002655 
z"/>
<path fill="#49A3EB" opacity="1.000000" stroke="none" 
	d="
M270.997986,135.997864 
	C270.998779,135.666901 270.883514,135.272598 271.023621,135.019928 
	C271.886780,133.463486 272.784058,131.922928 273.786835,130.457001 
	C273.831329,130.391953 275.011810,131.103973 275.663147,131.454071 
	C274.621155,132.749771 273.593842,134.057846 272.523804,135.329941 
	C272.328125,135.562576 271.958405,135.648819 271.336487,135.903137 
	C271.003967,136.003632 271.000000,136.000000 270.997986,135.997864 
z"/>
<path fill="#0B49D1" opacity="1.000000" stroke="none" 
	d="
M150.918777,393.628113 
	C149.111649,398.070312 147.742004,402.481354 145.189392,406.045013 
	C143.053787,409.026520 139.685165,411.229584 136.602417,413.409485 
	C124.323509,422.092377 104.656242,419.854492 95.483635,408.786377 
	C89.560585,401.639282 84.885872,394.676300 86.295952,384.215393 
	C86.930443,379.508331 87.295586,374.885040 89.422386,370.762543 
	C90.604118,368.471893 93.257217,366.940338 95.754669,365.311157 
	C97.286995,368.133026 98.203903,370.760376 99.368530,373.272919 
	C100.425949,375.554169 102.126938,378.504486 104.681000,375.552032 
	C108.081444,371.621124 110.737808,372.683258 113.899574,375.335144 
	C114.629448,375.947296 115.542015,376.472778 116.456017,376.713531 
	C123.851479,378.661621 131.259369,380.564209 138.680328,382.412994 
	C142.434814,383.348358 146.224152,384.143738 149.997726,385.002441 
	C150.279770,387.744934 150.561813,390.487427 150.918777,393.628113 
M106.880722,377.606110 
	C106.860512,377.844666 106.840294,378.083252 106.820076,378.321808 
	C106.955200,378.325592 107.090317,378.329376 107.225449,378.333191 
	C107.216736,378.093628 107.208023,377.854095 106.880722,377.606110 
z"/>
<path fill="#2466DC" opacity="1.000000" stroke="none" 
	d="
M147.010590,342.207367 
	C147.545746,340.714050 147.907715,339.279999 148.823532,338.479828 
	C155.036087,333.051758 161.351028,327.740112 167.676727,322.443237 
	C168.413696,321.826111 169.418991,321.529419 170.726471,321.373291 
	C171.781311,322.373901 172.270508,323.386017 173.059158,323.750793 
	C182.025513,327.898743 191.037628,331.947754 200.037506,336.023224 
	C193.478607,342.268707 186.989990,348.590302 180.334961,354.731598 
	C176.223557,358.525635 171.858887,362.045135 167.324127,365.863190 
	C164.683762,361.812469 163.538086,357.062134 159.027359,353.916748 
	C154.574753,350.811920 151.034271,346.398987 147.010590,342.207367 
z"/>
<path fill="#1150D3" opacity="1.000000" stroke="none" 
	d="
M150.063171,384.650970 
	C146.224152,384.143738 142.434814,383.348358 138.680328,382.412994 
	C131.259369,380.564209 123.851479,378.661621 116.456017,376.713531 
	C115.542015,376.472778 114.629448,375.947296 113.899574,375.335144 
	C110.737808,372.683258 108.081444,371.621124 104.681000,375.552032 
	C102.126938,378.504486 100.425949,375.554169 99.368530,373.272919 
	C98.203903,370.760376 97.286995,368.133026 96.095856,365.225159 
	C98.058426,362.350281 100.187317,359.805908 102.613525,357.109436 
	C106.982132,357.351562 110.781654,356.892853 113.856209,353.235107 
	C117.081070,352.645477 120.106689,352.354156 123.555832,352.082397 
	C124.961243,355.035553 126.531189,356.331940 130.070755,356.538025 
	C132.843109,356.699463 135.709579,358.993927 138.116104,360.875519 
	C142.557373,364.347931 146.891083,368.015533 150.850586,372.016541 
	C152.318512,373.499847 152.608063,376.149323 153.268677,377.841034 
	C152.111938,380.220245 151.120285,382.259888 150.063171,384.650970 
z"/>
<path fill="#4DCFE8" opacity="1.000000" stroke="none" 
	d="
M429.017242,97.991997 
	C429.372314,88.082138 435.712860,81.532555 442.581665,75.894432 
	C450.932098,69.040176 461.262573,70.378845 470.734619,72.587631 
	C474.904022,73.559906 479.072571,77.732689 481.647675,81.532501 
	C484.836365,86.237740 488.321594,90.889626 488.259613,97.636360 
	C488.141357,110.507019 481.723053,118.181686 471.254669,124.362747 
	C465.795013,127.586426 460.452545,126.664253 454.400940,126.635162 
	C451.569366,124.029663 449.515228,121.446693 446.938141,119.589325 
	C443.862732,117.372810 440.490753,115.386566 436.967590,114.023483 
	C433.441589,112.659332 432.298248,110.716431 434.219727,107.349846 
	C437.666443,101.311058 435.911774,98.154907 429.017242,97.991997 
z"/>
<path fill="#51C6EC" opacity="1.000000" stroke="none" 
	d="
M429.009216,98.402519 
	C435.911774,98.154907 437.666443,101.311058 434.219727,107.349846 
	C432.298248,110.716431 433.441589,112.659332 436.967590,114.023483 
	C440.490753,115.386566 443.862732,117.372810 446.938141,119.589325 
	C449.515228,121.446693 451.569366,124.029663 453.938171,126.627373 
	C447.970978,126.850677 443.655151,130.228485 439.574615,134.109558 
	C438.278564,135.342270 436.904785,136.493271 435.279236,137.857681 
	C434.550415,138.030945 434.108978,138.028183 433.146210,137.730560 
	C430.061798,132.396713 426.083557,129.717834 420.302216,129.651093 
	C419.526489,129.642151 418.365540,128.307968 418.071472,127.371284 
	C416.897156,123.631386 415.994904,119.806068 414.991943,116.012375 
	C415.809418,114.794525 416.626892,113.576675 417.721741,112.190643 
	C422.734833,108.509155 429.397614,106.600883 429.009216,98.402519 
z"/>
<path fill="#4499E8" opacity="1.000000" stroke="none" 
	d="
M380.279816,283.875366 
	C374.047516,284.491547 372.942200,290.395508 369.368958,293.510376 
	C367.051147,295.530853 364.929840,297.776794 362.332642,299.616699 
	C360.781433,295.717285 358.041779,297.226349 355.719849,297.391907 
	C354.382416,297.487244 353.045898,297.595734 351.708984,297.698303 
	C351.678833,296.107208 351.429138,294.478394 351.693573,292.937866 
	C351.878418,291.860962 353.098969,290.953461 353.255859,289.882294 
	C353.448914,288.564148 353.408661,286.870544 352.701874,285.895447 
	C352.305084,285.348083 350.298157,285.708649 349.125977,286.043152 
	C347.368378,286.544708 345.706909,287.383057 344.004578,288.078186 
	C344.138458,286.249329 344.296539,284.421509 344.378479,282.590271 
	C344.389954,282.334076 344.027924,282.061157 343.605438,281.468750 
	C342.680969,281.782806 341.659027,282.138245 340.631683,282.477356 
	C338.350494,283.230225 336.760986,282.605743 337.303070,280.010590 
	C338.152100,275.946106 335.560944,276.063446 332.955444,275.978851 
	C339.555298,269.195496 345.329773,261.539490 354.303619,257.350586 
	C356.001404,256.558075 356.707001,253.639969 357.937622,251.347107 
	C360.716736,248.772446 363.418427,246.540771 366.144714,244.339600 
	C367.512634,243.235184 368.925385,242.186279 370.835938,241.269516 
	C371.670288,242.723236 371.986542,244.019714 372.326385,245.412964 
	C377.218353,245.584305 378.997864,246.656891 382.091431,250.975327 
	C382.914703,252.124588 384.121490,253.208130 385.395172,253.790024 
	C391.363159,256.516602 391.866302,257.768188 389.418030,263.522491 
	C389.030151,264.434113 389.777496,265.828705 390.067383,267.251465 
	C390.756500,267.335297 391.378265,267.167633 392.342285,267.014282 
	C393.794281,267.687195 394.903961,268.345825 396.013641,269.004456 
	C390.862244,273.896851 385.710846,278.789246 380.279816,283.875366 
z"/>
<path fill="#4CA8EC" opacity="1.000000" stroke="none" 
	d="
M387.950012,225.930634 
	C389.381104,224.624863 390.812195,223.319077 392.982391,222.023087 
	C395.260986,222.212982 396.800476,222.393082 399.840759,222.748764 
	C398.511719,220.075531 397.733215,218.509613 396.954681,216.943710 
	C403.068817,208.697952 414.843292,207.937622 421.870483,215.321533 
	C423.243622,216.764374 424.736938,218.096527 426.063171,219.579590 
	C429.618622,223.555466 430.701813,237.014282 427.383698,240.910858 
	C424.974854,243.739670 421.839539,245.963715 418.955292,248.370087 
	C415.904266,250.915665 412.767029,253.357895 409.225128,255.652023 
	C409.257843,254.078354 409.732910,252.697922 410.207977,251.317490 
	C409.837708,251.593185 409.467438,251.868896 409.097168,252.144592 
	C404.248230,245.135376 399.399261,238.126144 394.550323,231.116928 
	C394.462646,231.273560 394.375000,231.430191 394.287323,231.586823 
	C392.174896,229.701431 390.062439,227.816025 387.950012,225.930634 
z"/>
<path fill="#49A3EB" opacity="1.000000" stroke="none" 
	d="
M387.629211,226.060257 
	C390.062439,227.816025 392.174896,229.701431 394.287323,231.586823 
	C394.375000,231.430191 394.462646,231.273560 394.550323,231.116928 
	C399.399261,238.126144 404.248230,245.135376 409.097168,252.144592 
	C409.467438,251.868896 409.837708,251.593185 410.207977,251.317490 
	C409.732910,252.697922 409.257843,254.078354 408.900635,255.743164 
	C409.337311,262.031342 403.079559,262.207733 400.446625,265.618713 
	C399.475403,266.876953 397.894287,267.664429 396.302490,268.835541 
	C394.903961,268.345825 393.794281,267.687195 392.342285,267.014282 
	C392.000000,267.000000 392.000610,267.000000 391.933838,266.747864 
	C391.244995,266.663849 390.622925,266.831909 390.000427,267.000000 
	C389.777496,265.828705 389.030151,264.434113 389.418030,263.522491 
	C391.866302,257.768188 391.363159,256.516602 385.395172,253.790024 
	C384.121490,253.208130 382.914703,252.124588 382.091431,250.975327 
	C378.997864,246.656891 377.218353,245.584305 372.326385,245.412964 
	C371.986542,244.019714 371.670288,242.723236 371.172852,241.201584 
	C376.430573,236.047562 381.869507,231.118729 387.629211,226.060257 
z"/>
<path fill="#49A3EB" opacity="1.000000" stroke="none" 
	d="
M396.616699,217.027267 
	C397.733215,218.509613 398.511719,220.075531 399.840759,222.748764 
	C396.800476,222.393082 395.260986,222.212982 393.337830,222.006180 
	C394.062378,220.356583 395.170563,218.733704 396.616699,217.027267 
z"/>
<path fill="#4DD3E9" opacity="1.000000" stroke="none" 
	d="
M171.107361,275.058228 
	C169.854477,275.765137 168.176071,276.137604 167.330673,277.183441 
	C160.004837,286.245941 149.968262,284.111816 140.931427,282.538818 
	C135.735641,281.634369 130.128204,278.111053 129.009720,271.257721 
	C128.759567,269.724823 127.678207,268.339783 127.074158,266.848358 
	C126.651970,265.805939 125.779106,264.362701 126.156830,263.674011 
	C128.663712,259.103241 130.699127,253.894302 134.345795,250.425751 
	C138.760132,246.227020 144.070816,243.001968 151.245056,243.797394 
	C161.771500,244.964478 171.530014,255.677902 170.761932,266.350128 
	C170.573395,268.969788 170.940109,271.629364 171.068604,274.697510 
	C171.085648,275.124420 171.068024,275.035980 171.107361,275.058228 
z"/>
<path fill="#2F78E1" opacity="1.000000" stroke="none" 
	d="
M197.957764,294.333069 
	C204.581497,293.916534 206.925797,287.895142 211.206894,284.606293 
	C212.627563,283.514893 213.927841,282.266785 215.822784,281.260101 
	C216.497299,282.583496 216.459946,283.791138 216.801346,284.879974 
	C217.627701,287.515503 217.948135,291.625763 219.693497,292.404327 
	C224.463333,294.531921 229.863754,295.245819 234.195816,296.317200 
	C236.145218,298.625488 237.591949,300.338593 239.038681,302.051666 
	C237.402069,304.465485 235.765457,306.879303 234.060120,309.632202 
	C228.915359,313.281952 223.839340,316.592651 218.037308,319.942749 
	C209.518219,315.428192 201.725159,310.874237 193.932083,306.320312 
	C194.144028,305.813782 194.355957,305.307251 194.567902,304.800720 
	C195.792740,304.289551 197.017578,303.778412 197.151413,303.722565 
	C196.454956,302.508331 195.732986,301.249603 195.011017,299.990906 
	C195.011002,299.990906 195.488190,299.984009 196.066589,299.986572 
	C197.510025,299.731567 198.375061,299.473999 199.240097,299.216431 
	C199.208664,298.958466 199.177231,298.700500 199.145798,298.442505 
	C198.435135,298.294434 197.724487,298.146332 197.013824,297.998230 
	C197.308716,296.889893 197.603577,295.781525 197.957764,294.333069 
z"/>
<path fill="#3B88E5" opacity="1.000000" stroke="none" 
	d="
M224.953522,273.998718 
	C228.532867,270.139648 232.011902,266.180878 235.719772,262.449493 
	C239.437210,258.708466 243.550461,255.353806 247.183853,251.538055 
	C251.216873,247.302643 253.045181,247.568039 256.019135,252.319534 
	C259.496002,257.874451 263.327423,263.266083 267.534088,268.285126 
	C270.358978,271.655579 270.570251,274.607635 267.629395,277.407043 
	C264.975433,279.933350 261.737762,281.846405 258.375000,283.656372 
	C256.891602,278.931335 253.460739,277.620087 249.609848,277.036926 
	C244.003738,276.187958 238.374863,275.489380 232.066589,274.633209 
	C231.600891,275.189697 230.342743,276.693115 229.413162,277.803925 
	C227.493332,276.165833 226.223434,275.082306 224.953522,273.998718 
z"/>
<path fill="#3481E4" opacity="1.000000" stroke="none" 
	d="
M224.666382,274.216919 
	C226.223434,275.082306 227.493332,276.165833 229.413162,277.803925 
	C230.342743,276.693115 231.600891,275.189697 232.066589,274.633209 
	C238.374863,275.489380 244.003738,276.187958 249.609848,277.036926 
	C253.460739,277.620087 256.891602,278.931335 258.003540,283.665894 
	C254.061859,288.287384 250.191956,292.607666 246.120178,296.728455 
	C244.194382,298.677429 241.882111,300.244507 239.391800,302.018127 
	C237.591949,300.338593 236.145218,298.625488 234.195816,296.317200 
	C229.863754,295.245819 224.463333,294.531921 219.693497,292.404327 
	C217.948135,291.625763 217.627701,287.515503 216.801346,284.879974 
	C216.459946,283.791138 216.497299,282.583496 216.160156,281.183167 
	C216.262161,279.529053 216.566422,278.121643 216.935654,276.357605 
	C219.460159,275.479034 221.919693,274.957062 224.666382,274.216919 
z"/>
<path fill="#337BE4" opacity="1.000000" stroke="none" 
	d="
M288.930969,314.349060 
	C289.734436,313.983398 290.468109,313.952667 291.726501,314.226318 
	C293.597412,316.173248 294.824982,317.935699 296.326569,319.421173 
	C297.571411,320.652618 299.580688,321.270752 300.483124,322.659698 
	C303.502380,327.306793 306.033020,332.272827 309.084595,336.896393 
	C309.849335,338.055054 311.849304,338.940582 313.307678,338.979706 
	C315.875519,339.048676 318.463470,338.368988 321.042999,338.002777 
	C318.705353,340.415802 316.367706,342.828827 314.009949,345.597656 
	C310.230713,348.918243 306.471558,351.883057 302.069702,354.801697 
	C299.524597,355.274261 297.622253,355.793030 294.707397,356.587891 
	C294.101532,355.253510 292.727905,353.039856 292.107788,350.632141 
	C291.498230,348.265533 290.763092,347.130859 288.100311,347.718109 
	C284.491638,348.513977 282.489166,346.918152 281.865082,343.204071 
	C281.682617,342.118347 280.608124,340.528168 279.693878,340.332825 
	C275.707458,339.481110 274.391693,337.563965 275.738983,333.588165 
	C276.082031,332.575745 275.210388,331.151764 274.896851,329.916870 
	C277.463989,327.105164 280.027252,324.289886 282.599579,321.482880 
	C284.681122,319.211426 286.773560,316.949951 288.930969,314.349060 
z"/>
<path fill="#2F78E1" opacity="1.000000" stroke="none" 
	d="
M274.560577,329.994629 
	C275.210388,331.151764 276.082031,332.575745 275.738983,333.588165 
	C274.391693,337.563965 275.707458,339.481110 279.693878,340.332825 
	C280.608124,340.528168 281.682617,342.118347 281.865082,343.204071 
	C282.489166,346.918152 284.491638,348.513977 288.100311,347.718109 
	C290.763092,347.130859 291.498230,348.265533 292.107788,350.632141 
	C292.727905,353.039856 294.101532,355.253510 294.707397,356.587891 
	C297.622253,355.793030 299.524597,355.274261 301.745544,354.903442 
	C298.283203,358.970917 294.751587,363.176208 290.662933,366.743011 
	C284.517700,372.103851 267.715668,367.655457 264.159058,360.163605 
	C257.101135,345.296417 264.675720,336.971100 274.560577,329.994629 
z"/>
<path fill="#3883E4" opacity="1.000000" stroke="none" 
	d="
M193.935913,202.336456 
	C196.438126,200.036087 198.869537,198.071686 201.839905,196.329865 
	C207.489197,198.851242 213.292038,200.572205 215.420151,206.421555 
	C218.497421,214.879791 226.527023,215.207275 233.080261,218.043686 
	C225.859360,225.207321 218.638443,232.370956 210.826508,239.773834 
	C209.159271,240.666565 208.083054,241.320053 207.006821,241.973526 
	C207.006821,241.973526 206.996521,241.996613 206.619720,242.001984 
	C203.874924,241.654434 201.114792,241.947906 199.227448,240.802795 
	C196.103622,238.907516 194.054642,239.527634 191.988327,242.013229 
	C182.472946,238.061264 181.608475,236.301178 183.423111,225.918961 
	C183.644287,224.653625 182.846069,223.051819 182.149734,221.814468 
	C180.165527,218.288605 181.110657,215.630936 183.910706,212.986816 
	C187.380981,209.709778 190.560181,206.124512 193.935913,202.336456 
z"/>
<path fill="#3E8EE8" opacity="1.000000" stroke="none" 
	d="
M233.433624,218.018661 
	C226.527023,215.207275 218.497421,214.879791 215.420151,206.421555 
	C213.292038,200.572205 207.489197,198.851242 202.174561,196.257690 
	C206.714066,191.478638 211.434891,186.969666 216.209457,182.518326 
	C219.558273,179.396271 222.980347,176.352798 226.915710,173.406769 
	C228.646042,178.456726 231.485138,181.344955 236.780838,181.762817 
	C237.785599,181.842117 238.609665,183.550858 239.618561,184.385086 
	C241.345200,185.812759 242.986053,187.484421 244.959244,188.444824 
	C249.221054,190.519150 253.670654,192.207642 258.043427,194.053986 
	C252.756561,200.167816 247.469711,206.281647 242.087006,212.721558 
	C239.256454,214.696304 236.521729,216.344971 233.433624,218.018661 
z"/>
<path fill="#3685E2" opacity="1.000000" stroke="none" 
	d="
M192.145737,242.369995 
	C194.054642,239.527634 196.103622,238.907516 199.227448,240.802795 
	C201.114792,241.947906 203.874924,241.654434 206.607422,242.004883 
	C202.244843,245.535065 197.285889,244.371674 192.145737,242.369995 
z"/>
<path fill="#3685E2" opacity="1.000000" stroke="none" 
	d="
M207.365265,241.972534 
	C208.083054,241.320053 209.159271,240.666565 210.589905,240.008820 
	C209.870773,240.660217 208.797241,241.315887 207.365265,241.972534 
z"/>
<path fill="#3685E2" opacity="1.000000" stroke="none" 
	d="
M316.947327,254.574112 
	C315.858337,255.288864 314.795471,255.615662 313.080139,255.856369 
	C311.267120,256.211273 310.086639,256.606842 308.951874,257.106384 
	C307.874359,257.580719 306.743652,258.759583 305.810638,258.601288 
	C300.246307,257.657135 294.870117,256.381378 291.338959,251.147110 
	C288.738129,247.291916 286.171906,242.971832 282.513641,240.376419 
	C277.197296,236.604675 276.446594,230.535965 272.771790,225.697098 
	C271.732056,226.059174 270.371948,226.532791 269.011871,227.006409 
	C273.733459,218.871750 281.410583,215.509750 290.186920,214.086014 
	C299.308838,212.606232 306.966156,215.760040 312.859741,222.570587 
	C314.813812,224.828659 315.373260,228.300186 316.533356,231.231552 
	C316.707977,231.672791 316.503143,232.347717 316.771210,232.656143 
	C322.334869,239.058380 320.857178,245.594986 317.269073,252.224655 
	C316.973083,252.771606 317.062897,253.527405 316.947327,254.574112 
z"/>
<path fill="#2F78E1" opacity="1.000000" stroke="none" 
	d="
M268.935181,227.378693 
	C270.371948,226.532791 271.732056,226.059174 272.771790,225.697098 
	C276.446594,230.535965 277.197296,236.604675 282.513641,240.376419 
	C286.171906,242.971832 288.738129,247.291916 291.338959,251.147110 
	C294.870117,256.381378 300.246307,257.657135 305.810638,258.601288 
	C306.743652,258.759583 307.874359,257.580719 308.951874,257.106384 
	C310.086639,256.606842 311.267120,256.211273 312.750824,255.922699 
	C306.910889,265.762054 294.987457,268.637939 283.551697,264.199310 
	C276.268250,261.372314 271.695160,256.566284 268.574280,249.769394 
	C268.069214,248.669418 266.783539,247.927872 265.555847,246.851059 
	C263.448883,239.798798 266.448914,233.831131 268.935181,227.378693 
z"/>
<path fill="#59D8EC" opacity="1.000000" stroke="none" 
	d="
M432.936768,189.426544 
	C434.945831,182.099686 436.715179,175.957718 445.360901,173.198441 
	C452.937195,170.780487 459.370483,170.401489 466.613770,173.907043 
	C467.292633,174.731323 467.391846,175.836182 467.960510,176.193085 
	C475.512177,180.932800 474.484406,188.489136 473.726166,195.462173 
	C473.408905,198.379990 470.834351,201.335770 468.671936,203.716461 
	C462.181458,210.861969 454.626740,212.266388 445.954346,208.478760 
	C444.440979,207.817795 442.746368,207.551117 441.274139,206.822281 
	C439.680145,206.033188 437.395874,205.229630 436.901489,203.884979 
	C435.229889,199.338684 434.218079,194.549835 432.936768,189.426544 
z"/>
<path fill="#296FDE" opacity="1.000000" stroke="none" 
	d="
M194.700882,300.132629 
	C195.732986,301.249603 196.454956,302.508331 197.151413,303.722565 
	C197.017578,303.778412 195.792740,304.289551 194.567902,304.800720 
	C194.355957,305.307251 194.144028,305.813782 193.932083,306.320312 
	C201.725159,310.874237 209.518219,315.428192 217.702347,320.018188 
	C212.298508,325.329285 206.503616,330.604370 200.373123,335.951355 
	C191.037628,331.947754 182.025513,327.898743 173.059158,323.750793 
	C172.270508,323.386017 171.781311,322.373901 171.073273,321.308624 
	C171.962204,319.521271 172.930893,318.087708 173.972595,316.329895 
	C179.358109,311.832764 184.662262,307.649231 189.988602,303.494141 
	C191.421326,302.376465 192.921524,301.345276 194.700882,300.132629 
z"/>
<path fill="#3D95E6" opacity="1.000000" stroke="none" 
	d="
M351.995544,211.983978 
	C351.737579,212.499893 351.479614,213.015793 351.096588,213.793640 
	C347.622070,216.887421 344.428528,219.937195 340.872864,222.480743 
	C338.123505,224.447495 335.053925,226.329849 331.849518,227.107407 
	C330.669952,227.393631 327.713928,224.654297 327.261932,222.866714 
	C325.682495,216.620926 321.693329,213.096802 316.030579,210.912369 
	C312.382599,209.505142 311.920563,205.383133 315.104828,202.581024 
	C318.207245,199.850906 321.338623,197.153717 324.701538,194.227966 
	C326.099701,193.441406 327.253632,192.868958 328.869904,192.373199 
	C328.788239,194.375870 328.244232,196.301819 327.531830,198.823837 
	C329.467346,197.945450 330.885223,197.301971 331.729370,196.918884 
	C334.202118,198.442627 336.207336,199.801926 338.325745,200.952759 
	C341.045532,202.430313 344.165314,203.351364 346.537781,205.236008 
	C348.748688,206.992279 350.206299,209.696854 351.995544,211.983978 
z"/>
<path fill="#4AAEEC" opacity="1.000000" stroke="none" 
	d="
M379.916077,145.360901 
	C380.450012,145.027237 380.884583,145.009384 381.973267,145.087372 
	C386.547638,151.687210 392.083893,156.677170 397.743225,161.596436 
	C399.471497,163.098709 400.667786,165.213013 402.107727,167.047012 
	C399.096893,170.445953 396.348145,174.134232 393.003174,177.164276 
	C389.500549,180.337067 385.425262,182.877655 381.134399,185.574539 
	C373.277222,178.748093 373.277222,178.748093 373.006439,172.817398 
	C370.914398,173.516327 368.825165,174.383377 366.649689,174.836517 
	C366.009674,174.969803 364.720917,174.070068 364.484558,173.383713 
	C364.304138,172.859772 365.143372,171.666809 365.823608,171.215851 
	C370.281372,168.260498 370.367462,162.555771 365.923523,158.929352 
	C370.554596,154.511810 375.185638,150.094269 379.916077,145.360901 
z"/>
<path fill="#4499E8" opacity="1.000000" stroke="none" 
	d="
M352.243652,211.760986 
	C350.206299,209.696854 348.748688,206.992279 346.537781,205.236008 
	C344.165314,203.351364 341.045532,202.430313 338.325745,200.952759 
	C336.207336,199.801926 334.202118,198.442627 331.729370,196.918884 
	C330.885223,197.301971 329.467346,197.945450 327.531830,198.823837 
	C328.244232,196.301819 328.788239,194.375870 329.149292,192.205246 
	C332.535919,188.608337 336.034882,185.176483 339.695709,181.926987 
	C343.132507,178.876373 346.740417,176.018555 350.557404,173.353424 
	C349.602173,175.251846 348.362549,176.872742 346.663910,179.093903 
	C352.132812,180.748550 355.224487,183.890030 356.094696,189.225754 
	C356.321472,190.616226 358.559357,191.624649 359.745514,192.925323 
	C361.571716,194.927841 363.287354,197.031219 365.049896,199.091797 
	C362.739929,201.697159 360.529633,204.401001 358.085785,206.874084 
	C356.387299,208.592926 354.367859,209.994614 352.243652,211.760986 
z"/>
<path fill="#49A3EB" opacity="1.000000" stroke="none" 
	d="
M365.409729,199.056030 
	C363.287354,197.031219 361.571716,194.927841 359.745514,192.925323 
	C358.559357,191.624649 356.321472,190.616226 356.094696,189.225754 
	C355.224487,183.890030 352.132812,180.748550 346.663910,179.093903 
	C348.362549,176.872742 349.602173,175.251846 350.903381,173.283478 
	C355.733337,168.324814 360.501740,163.713623 365.596832,159.015900 
	C370.367462,162.555771 370.281372,168.260498 365.823608,171.215851 
	C365.143372,171.666809 364.304138,172.859772 364.484558,173.383713 
	C364.720917,174.070068 366.009674,174.969803 366.649689,174.836517 
	C368.825165,174.383377 370.914398,173.516327 373.006439,172.817398 
	C373.277222,178.748093 373.277222,178.748093 380.849731,185.750702 
	C380.724854,186.825287 380.418762,187.603668 380.063629,188.693268 
	C376.747833,191.393127 373.499420,193.807556 370.205750,196.158508 
	C368.775055,197.179703 367.251160,198.070312 365.409729,199.056030 
z"/>
<path fill="#4DB5EC" opacity="1.000000" stroke="none" 
	d="
M402.423492,166.938385 
	C400.667786,165.213013 399.471497,163.098709 397.743225,161.596436 
	C392.083893,156.677170 386.547638,151.687210 382.299561,145.082642 
	C386.743469,140.689011 391.515228,136.395950 396.885040,132.239029 
	C399.431793,131.785889 401.366821,131.145065 403.333588,130.623978 
	C404.852112,130.221664 406.410461,129.969528 409.163971,129.399597 
	C404.362946,136.705124 404.347076,139.303223 407.404816,142.211548 
	C409.114380,143.837601 410.195374,146.124512 411.559601,148.113632 
	C411.407471,148.195847 411.255371,148.278076 411.103241,148.360291 
	C413.083252,150.265686 415.063263,152.171082 417.043274,154.076477 
	C412.275269,158.327576 407.507263,162.578659 402.423492,166.938385 
z"/>
<path fill="#4FBDEB" opacity="1.000000" stroke="none" 
	d="
M417.385925,153.997559 
	C415.063263,152.171082 413.083252,150.265686 411.103241,148.360291 
	C411.255371,148.278076 411.407471,148.195847 411.559601,148.113632 
	C410.195374,146.124512 409.114380,143.837601 407.404816,142.211548 
	C404.347076,139.303223 404.362946,136.705124 409.163971,129.399597 
	C406.410461,129.969528 404.852112,130.221664 403.333588,130.623978 
	C401.366821,131.145065 399.431793,131.785889 397.221130,132.161453 
	C397.561310,131.015244 397.950195,129.606857 398.799713,129.226059 
	C405.208832,126.353165 409.886505,121.455879 414.702393,116.178726 
	C415.994904,119.806068 416.897156,123.631386 418.071472,127.371284 
	C418.365540,128.307968 419.526489,129.642151 420.302216,129.651093 
	C426.083557,129.717834 430.061798,132.396713 432.815002,137.730682 
	C427.912964,143.323288 422.820770,148.620972 417.385925,153.997559 
z"/>
<path fill="#3E8EE8" opacity="1.000000" stroke="none" 
	d="
M332.653748,276.127930 
	C335.560944,276.063446 338.152100,275.946106 337.303070,280.010590 
	C336.760986,282.605743 338.350494,283.230225 340.631683,282.477356 
	C341.659027,282.138245 342.680969,281.782806 343.605438,281.468750 
	C344.027924,282.061157 344.389954,282.334076 344.378479,282.590271 
	C344.296539,284.421509 344.138458,286.249329 344.004578,288.078186 
	C345.706909,287.383057 347.368378,286.544708 349.125977,286.043152 
	C350.298157,285.708649 352.305084,285.348083 352.701874,285.895447 
	C353.408661,286.870544 353.448914,288.564148 353.255859,289.882294 
	C353.098969,290.953461 351.878418,291.860962 351.693573,292.937866 
	C351.429138,294.478394 351.678833,296.107208 351.708984,297.698303 
	C353.045898,297.595734 354.382416,297.487244 355.719849,297.391907 
	C358.041779,297.226349 360.781433,295.717285 361.999878,299.700256 
	C361.849884,300.600403 361.644806,301.111938 360.940979,301.896667 
	C359.968811,302.788422 359.495392,303.406982 359.021973,304.025574 
	C359.013885,304.193329 359.005829,304.361115 358.978638,304.780640 
	C358.377228,305.403534 357.794922,305.774689 357.118408,306.392487 
	C352.615417,309.426971 348.206604,312.214752 342.982666,315.010376 
	C339.364990,315.278503 336.541077,315.870056 333.766754,315.691315 
	C331.653137,315.555176 328.717499,315.085571 327.675171,313.652893 
	C322.851288,307.022797 315.519806,302.240021 312.958618,293.949188 
	C315.656067,291.875641 318.901733,290.142395 318.002014,285.433105 
	C321.107819,283.407227 324.273743,281.890686 327.286011,280.113647 
	C329.098419,279.044495 330.671478,277.569580 332.653748,276.127930 
z"/>
<path fill="#3883E4" opacity="1.000000" stroke="none" 
	d="
M312.623138,294.025574 
	C315.519806,302.240021 322.851288,307.022797 327.675171,313.652893 
	C328.717499,315.085571 331.653137,315.555176 333.766754,315.691315 
	C336.541077,315.870056 339.364990,315.278503 342.621918,315.031677 
	C341.059052,324.109680 333.115875,327.851898 326.859253,333.111908 
	C325.087891,334.601074 323.349945,336.130035 321.319824,337.821777 
	C318.463470,338.368988 315.875519,339.048676 313.307678,338.979706 
	C311.849304,338.940582 309.849335,338.055054 309.084595,336.896393 
	C306.033020,332.272827 303.502380,327.306793 300.483124,322.659698 
	C299.580688,321.270752 297.571411,320.652618 296.326569,319.421173 
	C294.824982,317.935699 293.597412,316.173248 292.093384,314.211426 
	C294.143188,311.298248 296.143127,308.484619 298.603943,306.158539 
	C303.019073,301.985138 307.711273,298.104767 312.623138,294.025574 
z"/>
<path fill="#4499E8" opacity="1.000000" stroke="none" 
	d="
M258.421692,194.040680 
	C253.670654,192.207642 249.221054,190.519150 244.959244,188.444824 
	C242.986053,187.484421 241.345200,185.812759 239.618561,184.385086 
	C238.609665,183.550858 237.785599,181.842117 236.780838,181.762817 
	C231.485138,181.344955 228.646042,178.456726 227.221283,173.260788 
	C226.980835,172.982269 226.992325,172.488754 226.999512,172.241959 
	C232.584381,166.896530 238.088821,161.713684 243.789597,156.756622 
	C245.271637,155.467911 247.366791,154.884293 249.900299,153.919342 
	C251.414352,152.908112 252.208405,151.954361 253.002472,151.000610 
	C253.002487,151.000610 253.000000,151.000000 253.000336,151.001328 
	C255.074066,154.215210 254.710739,154.891068 250.028290,156.542053 
	C250.034454,158.112427 250.034454,159.683914 250.034454,161.878128 
	C251.872726,161.721970 253.748642,161.562622 256.011414,161.370422 
	C256.136017,166.145859 258.109589,167.676636 262.885345,165.420609 
	C265.249695,164.303726 267.690643,164.841431 267.796265,168.771652 
	C267.833496,170.156906 269.925049,171.626511 271.298645,172.800110 
	C272.928650,174.192749 274.795990,175.307602 276.790466,176.791290 
	C274.441986,181.627075 271.945465,185.959442 266.305176,187.930695 
	C263.508453,188.908142 263.392029,194.408936 258.421692,194.040680 
z"/>
<path fill="#49A3EB" opacity="1.000000" stroke="none" 
	d="
M252.675964,151.063980 
	C252.208405,151.954361 251.414352,152.908112 250.289276,153.920349 
	C250.755341,153.028336 251.552399,152.077850 252.675964,151.063980 
z"/>
<path fill="#296FDE" opacity="1.000000" stroke="none" 
	d="
M196.807388,298.200256 
	C197.724487,298.146332 198.435135,298.294434 199.145798,298.442505 
	C199.177231,298.700500 199.208664,298.958466 199.240097,299.216431 
	C198.375061,299.473999 197.510025,299.731567 196.305191,299.990356 
	C196.177246,299.461823 196.389099,298.932037 196.807388,298.200256 
z"/>
<path fill="#4499E8" opacity="1.000000" stroke="none" 
	d="
M359.315796,303.939423 
	C359.495392,303.406982 359.968811,302.788422 360.744781,302.096008 
	C360.568085,302.632507 360.088867,303.242889 359.315796,303.939423 
z"/>
<path fill="#1150D3" opacity="1.000000" stroke="none" 
	d="
M107.040024,377.610321 
	C107.208023,377.854095 107.216736,378.093628 107.225449,378.333191 
	C107.090317,378.329376 106.955200,378.325592 106.820084,378.321808 
	C106.840294,378.083252 106.860512,377.844666 107.040024,377.610321 
z"/>
<path fill="#49A3EB" opacity="1.000000" stroke="none" 
	d="
M392.000000,267.000000 
	C391.378265,267.167633 390.756500,267.335297 390.401093,267.251892 
	C391.111816,267.000549 391.556213,267.000275 392.000610,267.000000 
	C392.000610,267.000000 392.000000,267.000000 392.000000,267.000000 
z"/>
<path fill="#4499E8" opacity="1.000000" stroke="none" 
	d="
M391.933838,266.747864 
	C391.556213,267.000275 391.111816,267.000549 390.334137,267.000427 
	C390.622925,266.831909 391.244995,266.663849 391.933838,266.747864 
z"/>
</svg>